<svg width="50" height="50" viewBox="0 0 50 50" fill="none" xmlns="http://www.w3.org/2000/svg">
<rect width="50" height="50" fill="white"/>
<rect x="2" y="2" width="46" height="46" rx="6" fill="url(#paint0_linear_16_19)"/>
<path d="M32.541 41.1309H17.46V37.8848H32.541V41.1309ZM35.8203 9.86914C35.8394 10.5002 35.8428 11.1583 35.832 11.832C37.0938 11.3621 38.434 11.1995 39.5947 11.4531C41.3114 11.8262 42.477 12.9917 42.877 14.7324C43.3991 17.0053 42.2501 19.612 39.6416 22.0723C37.5863 24.0099 34.8285 25.6217 31.917 26.6172C30.711 28.2979 29.1666 29.6523 27.207 30.4756C27.4928 31.5067 28.4955 34.4935 30.9189 36.3213H19.082C21.5052 34.4933 22.5084 31.5067 22.7939 30.4756C20.8344 29.6524 19.2894 28.2986 18.083 26.6182C15.1712 25.6226 12.4145 24.0099 10.3594 22.0723C7.75119 19.6125 6.60131 17.0062 7.12305 14.7334C7.52264 12.9924 8.68855 11.8263 10.4053 11.4531C11.5663 11.1994 12.907 11.362 14.1689 11.832C14.1577 11.1583 14.1606 10.5002 14.1797 9.86914H35.8203ZM14.3086 14.6445C13.2398 13.9913 11.942 13.661 10.9473 13.8779C10.1936 14.0423 9.75781 14.4888 9.57617 15.2832C9.267 16.6292 10.2085 18.4945 12.0947 20.2744C13.2435 21.358 14.6526 22.3213 16.1865 23.1094C15.1206 20.4694 14.5514 17.4936 14.3086 14.6445ZM39.0527 13.8789C38.0578 13.6625 36.7601 13.9916 35.6914 14.6445C35.4489 17.4937 34.8798 20.4693 33.8135 23.1094C35.3475 22.321 36.7565 21.3576 37.9053 20.2744C39.7915 18.4948 40.7329 16.6294 40.4238 15.2832C40.2422 14.4888 39.8064 14.0433 39.0527 13.8789Z" fill="white"/>
<path d="M22.3425 24C22.4538 24 22.5659 23.9719 22.6693 23.9154L24.824 22.7323C24.9341 22.6718 25.0659 22.6718 25.176 22.7323L27.3307 23.9149C27.5689 24.0451 27.8516 24.0241 28.0687 23.8592C28.2863 23.6943 28.393 23.4203 28.3476 23.1441L27.936 20.6391C27.915 20.511 27.9557 20.3804 28.0448 20.2896L29.7879 18.5159C29.9802 18.3199 30.0483 18.0327 29.9651 17.7661C29.882 17.4996 29.6652 17.3088 29.3993 17.2685L26.9901 16.9028C26.8671 16.8839 26.7604 16.8032 26.7053 16.6871L25.6284 14.4078C25.5095 14.1565 25.2688 14 25 14C24.7312 14 24.4905 14.1561 24.3717 14.4078L23.2942 16.6871C23.2392 16.8037 23.1325 16.8844 23.0095 16.9028L20.6002 17.2685C20.3344 17.3088 20.1176 17.4996 20.0349 17.7661C19.9517 18.0327 20.0198 18.3204 20.2121 18.5159L21.9557 20.2901C22.0447 20.3808 22.0855 20.5115 22.0645 20.6395L21.6528 23.1445C21.6075 23.4208 21.7142 23.6953 21.9317 23.8597C22.054 23.9526 22.198 24 22.3425 24H22.3425Z" fill="url(#paint1_radial_16_19)"/>
<defs>
<linearGradient id="paint0_linear_16_19" x1="25" y1="2" x2="25" y2="48" gradientUnits="userSpaceOnUse">
<stop stop-color="#CF4BA5"/>
<stop offset="1" stop-color="#6C65EF"/>
</linearGradient>
<radialGradient id="paint1_radial_16_19" cx="0" cy="0" r="1" gradientUnits="userSpaceOnUse" gradientTransform="translate(25 19) rotate(90) scale(5)">
<stop stop-color="#CC4CA7" stop-opacity="0.8"/>
<stop offset="1" stop-color="#6F65ED" stop-opacity="0.5"/>
</radialGradient>
</defs>
</svg>
