<svg width="136" height="120" viewBox="0 0 136 120" fill="none" xmlns="http://www.w3.org/2000/svg">
<path d="M122.93 6.03484C118.56 5.06831 113.515 5.68832 108.765 7.47877C108.806 4.91149 108.794 2.40455 108.722 0H27.265C27.1929 2.40455 27.1792 4.91161 27.2213 7.47877C22.4711 5.68828 17.4271 5.06833 13.0568 6.03484C6.59445 7.45619 2.20681 11.8978 0.702647 18.5306C-1.26225 27.1897 3.06353 37.1181 12.8817 46.4896C20.6179 53.8719 30.9962 60.0143 41.9574 63.8073C46.4984 70.2093 52.3118 75.3679 59.6879 78.5039C58.6131 82.4323 54.8381 93.8115 45.7166 100.775L67.9929 100.775H90.2705C81.1478 93.811 77.3745 82.4306 76.2992 78.5034C83.6756 75.3671 89.4901 70.2085 94.0297 63.8055C104.989 60.0129 115.369 53.8711 123.105 46.4891C132.924 37.1165 137.25 27.189 135.284 18.5301C133.779 11.8978 129.392 7.4562 122.929 6.03485L122.93 6.03484ZM19.4164 39.6426C12.3154 32.8612 8.7698 25.7541 9.93393 20.626C10.6177 17.5995 12.2586 15.9012 15.0955 15.2749C18.8401 14.448 23.7246 15.7042 27.7481 18.1931C28.6622 29.0475 30.806 40.3841 34.8187 50.442C29.0445 47.4394 23.7414 43.7714 19.417 39.6431L19.4164 39.6426ZM116.568 39.6426C112.244 43.7695 106.941 47.4391 101.167 50.4425C105.181 40.3846 107.324 29.0482 108.237 18.1936C112.26 15.7062 117.145 14.4505 120.89 15.2754C123.727 15.9018 125.368 17.6 126.051 20.6265C127.215 25.7552 123.669 32.8621 116.568 39.6418L116.568 39.6426Z" fill="url(#paint0_linear_30_16)"/>
<path d="M39.3896 106.745H96.605V119.112H39.3896V106.745Z" fill="url(#paint1_linear_30_16)"/>
<defs>
<linearGradient id="paint0_linear_30_16" x1="67.9936" y1="0" x2="67.9936" y2="100.775" gradientUnits="userSpaceOnUse">
<stop stop-color="#DE4BAD"/>
<stop offset="1" stop-color="#6965F1"/>
</linearGradient>
<linearGradient id="paint1_linear_30_16" x1="67.9973" y1="106.745" x2="67.9973" y2="119.112" gradientUnits="userSpaceOnUse">
<stop stop-color="#DE4BAD"/>
<stop offset="1" stop-color="#6965F1"/>
</linearGradient>
</defs>
</svg>
