<svg width="129" height="133" viewBox="0 0 129 133" fill="none" xmlns="http://www.w3.org/2000/svg">
<path d="M33.8332 0C32.1369 0 30.7621 1.38454 30.7621 3.09279V29.3834C30.7621 31.0917 32.1369 32.4762 33.8332 32.4762C35.5295 32.4762 36.9044 31.0916 36.9044 29.3834V3.09279C36.9044 1.38448 35.5295 0 33.8332 0ZM95.2627 0C93.5663 0 92.1915 1.38454 92.1915 3.09279V29.3834C92.1915 31.0917 93.5664 32.4762 95.2627 32.4762C96.959 32.4762 98.3338 31.0916 98.3338 29.3834V3.09279C98.3338 1.38448 96.959 0 95.2627 0ZM12.3332 9.27938C5.50648 9.27938 0 14.8248 0 21.7003V49.4889H129V21.7003C129 14.8246 123.493 9.27938 116.667 9.27938H101.406V22.4734C103.29 24.1721 104.477 26.6375 104.477 29.3842C104.477 34.5091 100.352 38.6636 95.2625 38.6636C90.1742 38.6636 86.048 34.5091 86.048 29.3842C86.048 26.6375 87.2363 24.1721 89.1191 22.4734V9.27938H39.9292V22.4245C41.8423 24.1248 43.049 26.6125 43.049 29.384C43.049 34.5089 38.9244 38.6634 33.8345 38.6634C28.7462 38.6634 24.6199 34.5089 24.6199 29.384C24.6199 26.6612 25.7892 24.2192 27.6436 22.5213V9.27938H12.3332ZM0 55.6742V120.579C0 127.455 5.50668 133 12.3332 133H116.665C123.492 133 128.998 127.455 128.998 120.579V55.6742H0Z" fill="url(#paint0_linear_30_4)"/>
<defs>
<linearGradient id="paint0_linear_30_4" x1="64.5" y1="0" x2="64.5" y2="133" gradientUnits="userSpaceOnUse">
<stop stop-color="#DE4BAD"/>
<stop offset="1" stop-color="#6965F1"/>
</linearGradient>
</defs>
</svg>
