<svg width="101" height="128" viewBox="0 0 101 128" fill="none" xmlns="http://www.w3.org/2000/svg">
<path fill-rule="evenodd" clip-rule="evenodd" d="M69.4793 0.00114546C69.4793 0.00114546 61.6085 13.541 68.428 27.3936C75.2514 41.2461 81.2338 52.1635 79.8645 63.8103C79.8645 63.8103 83.3278 44.92 100.854 39.9841C100.854 39.9841 94.3481 52.262 97.9145 69.5822C101.481 86.8979 93.3998 119.225 60.2357 127.623C60.2357 127.623 89.6231 111.985 68.5268 86.5841C68.5268 86.5841 68.0034 99.0761 57.1395 102.799C57.1395 102.799 74.2456 73.6764 49.0586 46.5966C49.0586 46.5966 54.8307 65.3839 35.5187 81.4421C16.2081 97.5003 25.7602 123.318 36.8836 126.884C36.8836 126.884 -23.7797 99.8056 12.3244 43.974C12.3244 43.974 13.586 56.6722 22.821 61.6069C22.821 61.6069 21.4561 7.13585 69.4748 0L69.4793 0.00114546Z" fill="url(#paint0_linear_16_29)"/>
<path fill-rule="evenodd" clip-rule="evenodd" d="M51.3556 61.3774C60.3946 61.3774 67.7223 68.7276 67.7223 77.7946V81.277H68.9912C70.4816 81.2771 71.6898 82.489 71.6899 83.984V99.1866C71.6899 110.726 62.3639 120.081 50.8596 120.081C39.3553 120.081 30.0293 110.726 30.0293 99.1866V83.984C30.0294 82.489 31.2376 81.2771 32.728 81.277H34.9889V77.7946C34.9889 68.7276 42.3165 61.3774 51.3556 61.3774ZM50.8596 93.2167C48.6683 93.2167 46.8919 94.9986 46.8919 97.1966C46.8919 98.6894 47.7119 99.9892 48.9242 100.67C48.8936 101.135 48.8758 101.635 48.8758 102.171C48.8758 103.271 49.764 104.161 50.8596 104.161C51.9553 104.161 52.8435 103.271 52.8435 102.171C52.8435 101.621 52.8294 101.119 52.8086 100.662C54.0131 99.9783 54.8273 98.6837 54.8273 97.1966C54.8273 94.9986 53.0509 93.2167 50.8596 93.2167ZM51.3556 68.3423C45.0556 68.3423 39.9485 73.4651 39.9485 79.7845V81.277H62.7627V79.7845C62.7627 73.4651 57.6555 68.3423 51.3556 68.3423Z" fill="white"/>
<defs>
<linearGradient id="paint0_linear_16_29" x1="50.854" y1="0" x2="50.854" y2="127.623" gradientUnits="userSpaceOnUse">
<stop stop-color="#DE4BAD"/>
<stop offset="1" stop-color="#6965F1"/>
</linearGradient>
</defs>
</svg>
