<svg width="136" height="129" viewBox="0 0 136 129" fill="none" xmlns="http://www.w3.org/2000/svg">
<path d="M12.2051 129H123.795C127.031 128.996 130.133 127.709 132.421 125.422C134.709 123.134 135.996 120.033 136 116.797V12.2027C135.996 8.96738 134.709 5.86594 132.421 3.57797C130.133 1.29056 127.031 0.00376541 123.795 0H12.2051C8.96917 0.00381338 5.86711 1.29054 3.57868 3.57797C1.29082 5.86594 0.00376615 8.96738 0 12.2027V116.797C0.00381414 120.033 1.2908 123.134 3.57868 125.422C5.86711 127.709 8.96917 128.996 12.2051 129ZM90.6667 50.5541C90.6667 48.6856 91.6638 46.9592 93.282 46.0248C94.9004 45.0906 96.8945 45.0906 98.5128 46.0248C100.131 46.9591 101.128 48.6854 101.128 50.5541V99.3649C101.128 101.233 100.131 102.96 98.5128 103.894C96.8945 104.828 94.9004 104.828 93.282 103.894C91.6637 102.96 90.6667 101.233 90.6667 99.3649V50.5541ZM62.7692 29.6351C62.7692 27.7667 63.7663 26.0403 65.3846 25.1059C67.0029 24.1716 68.9971 24.1716 70.6154 25.1059C72.2337 26.0402 73.2308 27.7665 73.2308 29.6351V99.3649C73.2308 101.233 72.2337 102.96 70.6154 103.894C68.9971 104.828 67.0029 104.828 65.3846 103.894C63.7663 102.96 62.7692 101.233 62.7692 99.3649V29.6351ZM34.8718 64.5C34.8718 62.6315 35.8689 60.9052 37.4872 59.9708C39.1055 59.0365 41.0996 59.0365 42.7179 59.9708C44.3363 60.905 45.3333 62.6314 45.3333 64.5V99.3649C45.3333 101.233 44.3362 102.96 42.7179 103.894C41.0996 104.828 39.1055 104.828 37.4872 103.894C35.8688 102.96 34.8718 101.233 34.8718 99.3649V64.5Z" fill="url(#paint0_linear_30_27)"/>
<defs>
<linearGradient id="paint0_linear_30_27" x1="68" y1="0" x2="68" y2="129" gradientUnits="userSpaceOnUse">
<stop stop-color="#DE4BAD"/>
<stop offset="1" stop-color="#6965F1"/>
</linearGradient>
</defs>
</svg>
